<svg xmlns="http://www.w3.org/2000/svg" width="24" height="24" viewBox="0 0 24 24">
  <path fill="white" d="M20.52 3.48A11.94 11.94 0 0 0 12 0a11.9 11.9 0 0 0-8.48 3.52A11.9 11.9 0 0 0 0 12c0 2.1.55 4.16 1.6 5.97L.05 24l5.19-1.55a11.96 11.96 0 0 0 6.76 2.05h.01c6.63 0 12.02-5.39 12.02-12 0-3.2-1.24-6.2-3.51-8.47zM12 22.17c-1.91 0-3.77-.51-5.4-1.47l-.39-.23-3.08.92.92-3.01-.25-.4A9.92 9.92 0 0 1 2 12c0-5.51 4.48-10 10-10 2.67 0 5.18 1.04 7.07 2.93A9.94 9.94 0 0 1 22 12c0 5.52-4.49 10.01-10 10.01zM16.93 13.4c-.28-.14-1.65-.82-1.9-.91-.26-.1-.45-.14-.64.14-.19.27-.73.91-.89 1.09-.16.18-.32.2-.6.07-.28-.13-1.2-.44-2.28-1.4-.84-.75-1.4-1.67-1.56-1.95-.16-.27-.02-.42.12-.55.12-.11.27-.3.4-.45.13-.14.18-.23.27-.38.1-.15.05-.28-.03-.41-.08-.13-.64-1.55-.88-2.13-.23-.56-.47-.49-.64-.5h-.55c-.18 0-.41.06-.63.28-.22.22-.83.82-.83 2s.85 2.33.97 2.5c.12.16 1.67 2.55 4.04 3.58.56.24.99.38 1.33.49.56.18 1.07.16 1.47.1.45-.07 1.65-.68 1.89-1.34.24-.67.24-1.24.17-1.34-.07-.1-.25-.16-.52-.3z"/>
</svg>
